# xmcd
#
# Track frame offsets:
#	150
#	22709
#	44728
#	64941
#	82937
#	97973
#	122671
#	142249
#
# Disc length: 2132 seconds
#
# Revision: 0
# Processed by: cddbd v1.5.2PL0 Copyright (c) Steve Scherf et al.
# Submitted via: audiograbber 1.83.01
#
DISCID=66085208
DTITLE=Claudette Miller - All In Time
DYEAR=2006
DGENRE=Blues
TTITLE0=Pillow Full Of Tears
TTITLE1=Big Fat Daddy
TTITLE2=Aint No Sunshine
TTITLE3=I Know Your Kind
TTITLE4=Highway Man
TTITLE5=You're Leaving Me
TTITLE6=Rock Me Baby
TTITLE7=Can't Find My Man
EXTD=
EXTT0=
EXTT1=
EXTT2=
EXTT3=
EXTT4=
EXTT5=
EXTT6=
EXTT7=
PLAYORDER=
